<?xml version="1.0" encoding="UTF-8"?>
<svg id="Capa_2" data-name="Capa 2" xmlns="http://www.w3.org/2000/svg" viewBox="0 0 2.7 12.05">
  <defs>
    <style>
      .cls-1 {
        fill: #425662;
        stroke-width: 0px;
      }
    </style>
  </defs>
  <g id="Capa_1-2" data-name="Capa 1">
    <path class="cls-1" d="M2.7,6.03c0-.19-.03-.38-.1-.55s-.17-.33-.29-.47-.27-.24-.44-.31c-.16-.07-.34-.11-.52-.11s-.35.04-.52.11c-.16.07-.31.18-.44.31-.13.13-.23.29-.29.47C.03,5.65,0,5.84,0,6.03c0,.38.14.75.4,1.02.25.27.6.42.96.42.36,0,.7-.15.96-.42.25-.27.4-.64.4-1.02h0ZM2.7,1.44c0-.19-.03-.38-.1-.55s-.17-.33-.29-.47c-.13-.13-.27-.24-.44-.31-.16-.07-.34-.11-.52-.11s-.35.04-.52.11-.31.18-.44.31c-.13.13-.23.29-.29.47C.03,1.07,0,1.25,0,1.44c0,.38.14.75.4,1.02.25.27.6.42.96.42.36,0,.7-.15.96-.42.25-.27.4-.64.4-1.02h0ZM2.7,10.61c0-.19-.03-.38-.1-.55-.07-.18-.17-.33-.29-.47-.13-.13-.27-.24-.44-.31-.16-.07-.34-.11-.52-.11s-.35.04-.52.11-.31.18-.44.31c-.13.13-.23.29-.29.47C.03,10.24,0,10.42,0,10.61c0,.38.14.75.4,1.02.25.27.6.42.96.42.36,0,.7-.15.96-.42.25-.27.4-.64.4-1.02h0Z"/>
  </g>
</svg>