<?xml version="1.0" encoding="UTF-8"?>
<svg id="Capa_2" data-name="Capa 2" xmlns="http://www.w3.org/2000/svg" viewBox="0 0 64 64">
  <defs>
    <style>
      .cls-1 {
        fill: rgba(247, 150, 129, .5);
      }

      .cls-1, .cls-2 {
        stroke-width: 0px;
      }

      .cls-2 {
        fill: #ff1010;
        fill-rule: evenodd;
      }
    </style>
  </defs>
  <g id="Capa_1-2" data-name="Capa 1">
    <g>
      <circle class="cls-1" cx="32" cy="32" r="32"/>
      <path class="cls-2" d="M30.92,23.83c-.53.66-1.12,1.68-1.96,3.14l-4.4,7.6c-.85,1.47-1.44,2.49-1.75,3.28-.31.78-.26,1.11-.13,1.33s.38.43,1.22.55c.84.12,2.02.13,3.72.13h8.8c1.7,0,2.88,0,3.72-.13.83-.12,1.09-.34,1.21-.55s.18-.55-.13-1.33c-.31-.79-.9-1.81-1.75-3.28l-4.4-7.6c-.85-1.46-1.44-2.48-1.96-3.14-.52-.66-.83-.77-1.08-.77s-.56.12-1.08.77ZM29.65,22.82c.62-.78,1.35-1.39,2.35-1.39s1.73.6,2.35,1.39c.61.77,1.26,1.89,2.06,3.28h0l.04.06,4.4,7.6.04.06c.81,1.39,1.46,2.52,1.82,3.43.37.93.53,1.87.03,2.74-.5.87-1.39,1.2-2.38,1.35-.97.14-2.27.14-3.88.14h-8.94c-1.61,0-2.91,0-3.88-.14-.99-.15-1.88-.48-2.38-1.35-.5-.87-.34-1.8.03-2.74.36-.91,1.01-2.04,1.82-3.43l.04-.06,4.4-7.6.04-.06h0c.8-1.39,1.45-2.51,2.06-3.28ZM32,27.94c.45,0,.81.36.81.81v4.33c0,.45-.36.81-.81.81s-.81-.36-.81-.81v-4.33c0-.45.36-.81.81-.81ZM32,37.42c.6,0,1.08-.49,1.08-1.08s-.49-1.08-1.08-1.08-1.08.49-1.08,1.08.49,1.08,1.08,1.08Z"/>
    </g>
  </g>
</svg>