<?xml version="1.0" encoding="UTF-8"?>
<svg id="Capa_2" data-name="Capa 2" xmlns="http://www.w3.org/2000/svg" viewBox="0 0 14 14">
  <defs>
    <style>
      .cls-1 {
        fill: #fff3f1;
      }

      .cls-1, .cls-2 {
        stroke-width: 0px;
      }

      .cls-2 {
        fill: #ff1010;
        fill-rule: evenodd;
      }
    </style>
  </defs>
  <g id="Capa_1-2" data-name="Capa 1">
    <g>
      <circle class="cls-1" cx="7" cy="7" r="7"/>
      <path class="cls-2" d="M6.71,3.92c-.14.18-.3.45-.53.85l-1.52,2.62c-.23.4-.39.67-.47.88-.08.21-.07.3-.04.36.03.06.1.12.33.15.23.03.54.03,1,.03h3.03c.46,0,.77,0,1-.03.22-.03.29-.09.33-.15.03-.06.05-.15-.04-.36-.08-.21-.24-.49-.47-.88l-1.52-2.62c-.23-.39-.39-.67-.53-.85-.14-.18-.22-.21-.29-.21s-.15.03-.29.21ZM6.37,3.64c.17-.21.36-.37.63-.37s.47.16.63.37c.16.21.34.51.56.88h0s0,.02,0,.02l1.52,2.62v.02s0,0,0,0c.22.38.39.68.49.92.1.25.14.5,0,.74-.13.23-.37.32-.64.36-.26.04-.61.04-1.05.04h-3.07c-.43,0-.78,0-1.05-.04-.27-.04-.51-.13-.64-.36-.13-.23-.09-.49,0-.74.1-.25.27-.55.49-.92h0v-.02s1.52-2.62,1.52-2.62v-.02c.23-.37.4-.68.57-.88ZM7,5.26c.12,0,.22.1.22.22v1.29c0,.12-.1.22-.22.22s-.22-.1-.22-.22v-1.29c0-.12.1-.22.22-.22ZM7,8.06c.18,0,.32-.14.32-.32s-.14-.32-.32-.32-.32.14-.32.32.14.32.32.32Z"/>
    </g>
  </g>
</svg>