<?xml version="1.0" encoding="UTF-8"?>
<svg id="Capa_2" data-name="Capa 2" xmlns="http://www.w3.org/2000/svg" viewBox="0 0 64 64">
  <defs>
    <style>
      .cls-1 {
        fill: #ff8a48;
      }

      .cls-1, .cls-2 {
        stroke-width: 0px;
      }

      .cls-2 {
        fill: rgba(250, 218, 188, .79);
      }
    </style>
  </defs>
  <g id="Capa_1-2" data-name="Capa 1">
    <g>
      <circle class="cls-2" cx="32" cy="32" r="32"/>
      <path class="cls-1" d="M33.41,33.93l6.23-6.23c.41-.41.41-1.07,0-1.48-.41-.41-1.07-.41-1.48,0l-6.23,6.23-6.23-6.23c-.41-.41-1.07-.41-1.48,0-.41.41-.41,1.07,0,1.48l6.23,6.23-6.23,6.23c-.41.41-.41,1.07,0,1.48.2.2.47.31.74.31s.54-.1.74-.31l6.23-6.23,6.23,6.23c.2.2.47.31.74.31s.54-.1.74-.31c.41-.41.41-1.07,0-1.48l-6.23-6.23Z"/>
    </g>
  </g>
</svg>