<?xml version="1.0" encoding="UTF-8"?>
<svg id="Capa_2" data-name="Capa 2" xmlns="http://www.w3.org/2000/svg" viewBox="0 0 60 60">
  <defs>
    <style>
      .cls-1, .cls-2 {
        fill: none;
        stroke: #33a3aa;
        stroke-width: 1.5px;
      }

      .cls-3 {
        fill: #eff2f7;
      }

      .cls-3, .cls-4 {
        stroke-width: 0px;
      }

      .cls-2 {
        stroke-linecap: round;
        stroke-linejoin: round;
      }

      .cls-4 {
        fill: #33a3aa;
      }
    </style>
  </defs>
  <g id="Capa_1-2" data-name="Capa 1">
    <g>
      <circle class="cls-3" cx="30" cy="30" r="30"/>
      <path class="cls-2" d="M24.42,29.83v6.5"/>
      <path class="cls-2" d="M28.75,32v4.33"/>
      <path class="cls-2" d="M33.08,27.67v8.67"/>
      <rect class="cls-1" x="19" y="23.33" width="19.5" height="17.33" rx="2" ry="2"/>
      <path class="cls-3" d="M34.77,22.02c-.66.66-1.02,1.55-1.02,2.48s.37,1.82,1.02,2.48c.69.68,1.58,1.02,2.47,1.02s1.79-.34,2.48-1.02c1.74-1.74,2.02-6.98,2.02-6.98,0,0-5.23.28-6.97,2.02Z"/>
      <path class="cls-4" d="M35.52,22.52c-.49.49-.77,1.16-.77,1.86s.28,1.36.77,1.86c.51.51,1.19.77,1.86.77s1.34-.25,1.86-.77c1.31-1.31,1.52-5.23,1.52-5.23,0,0-3.93.21-5.23,1.52ZM38.7,25.7c-.36.35-.83.55-1.33.55-.33,0-.65-.09-.93-.26.35-1.08.98-2.03,1.83-2.75-.99.51-1.82,1.3-2.39,2.25-.56-.74-.51-1.78.16-2.45.65-.65,2.46-1.05,3.87-1.22-.17,1.41-.57,3.22-1.22,3.88Z"/>
    </g>
  </g>
</svg>