<?xml version="1.0" encoding="UTF-8"?>
<svg id="Capa_2" data-name="Capa 2" xmlns="http://www.w3.org/2000/svg" viewBox="0 0 22 16.97">
  <defs>
    <style>
      .cls-1 {
        fill: #c1c1c1;
        stroke-width: 0px;
      }
    </style>
  </defs>
  <g id="Capa_1-2" data-name="Capa 1">
    <path class="cls-1" d="M5.34,1.41l-.71.71c-.84.83-1.5,1.83-1.95,2.92-.45,1.09-.68,2.26-.68,3.45,0,1.18.23,2.35.68,3.45.45,1.09,1.12,2.08,1.95,2.92l.71.71-1.41,1.41-.71-.71c-1.02-1.02-1.83-2.23-2.39-3.57C.28,11.36,0,9.93,0,8.48,0,5.45,1.23,2.69,3.22.71l.71-.71,1.41,1.41ZM18.07,0l.71.71c1.02,1.02,1.83,2.23,2.39,3.57.55,1.33.84,2.77.84,4.21,0,3.04-1.23,5.79-3.22,7.78l-.71.71-1.41-1.41.71-.71c.84-.83,1.5-1.83,1.95-2.92.45-1.09.68-2.26.68-3.45,0-1.18-.23-2.35-.68-3.45-.45-1.09-1.12-2.08-1.95-2.92l-.71-.71,1.41-1.41ZM8.17,4.24l-.71.71c-.47.46-.83,1.01-1.09,1.62-.25.61-.38,1.26-.38,1.91,0,1.38.56,2.63,1.47,3.54l.71.71-1.41,1.41-.71-.71c-.65-.65-1.17-1.42-1.52-2.27-.35-.85-.53-1.76-.53-2.68,0-1.93.78-3.68,2.05-4.95l.71-.71,1.42,1.41h0ZM15.24,2.83l.71.71c.65.65,1.17,1.42,1.52,2.27.35.85.53,1.76.53,2.68,0,.92-.18,1.83-.53,2.68-.35.85-.87,1.62-1.52,2.27l-.71.71-1.41-1.41.71-.71c.47-.46.83-1.01,1.09-1.62.25-.61.38-1.26.38-1.91,0-.66-.13-1.31-.38-1.91-.25-.61-.62-1.16-1.09-1.62l-.71-.71,1.41-1.41ZM12,5.49v6h-2v-6h2Z"/>
  </g>
</svg>