<?xml version="1.0" encoding="UTF-8"?>
<svg id="Capa_2" data-name="Capa 2" xmlns="http://www.w3.org/2000/svg" viewBox="0 0 20 20">
  <defs>
    <style>
      .cls-1 {
        fill: #9595a6;
        stroke-width: 0px;
      }
    </style>
  </defs>
  <g id="Capa_1-2" data-name="Capa 1">
    <path class="cls-1" d="M20,10h0c0-2.96-1.29-5.62-3.33-7.45h-.01s-.05-.06-.08-.08h0C14.75.87,12.42,0,10,0,7.47,0,5.16.94,3.41,2.49h.01s-.04.03-.06.04c-1.06.94-1.9,2.09-2.48,3.37C.3,7.19,0,8.59,0,10,0,12.96,1.29,15.62,3.33,17.44h0s.06.07.09.09h0c1.82,1.59,4.15,2.47,6.57,2.47,2.43,0,4.77-.88,6.59-2.49h-.01c1.08-.93,1.94-2.08,2.53-3.38.59-1.3.9-2.71.89-4.13h0s0,0,0,0ZM16.28,16.5c-.5-.4-1.03-.75-1.59-1.05l-.05-.03c.51-1.47.82-3.17.85-4.94h0s3.55-.01,3.55-.01c-.12,2.28-1.1,4.44-2.75,6.02h0ZM10.48,15.25c1.07.06,2.07.29,2.99.68l-.06-.02c-.74,1.68-1.78,2.84-2.93,3.09v-3.75ZM10.48,14.29v-3.82h4.06c-.03,1.58-.31,3.15-.81,4.65l.03-.11c-1.03-.43-2.13-.67-3.25-.72h-.02ZM10.48,9.52v-3.82c1.15-.05,2.28-.3,3.34-.74l-.07.02c.46,1.35.75,2.9.78,4.52v.02h-4.06ZM10.48,4.75V1c1.15.25,2.19,1.41,2.93,3.09-.86.36-1.86.59-2.91.65h-.02ZM12.85,1.42c.98.33,1.9.82,2.71,1.46l-.02-.02c-.37.29-.78.56-1.22.8l-.05.02c-.35-.83-.84-1.6-1.44-2.28h0ZM9.52,1.01v3.74c-1.03-.05-2.04-.28-2.99-.67l.06.02c.74-1.68,1.78-2.84,2.93-3.09h0ZM5.71,3.68c-.45-.24-.88-.52-1.29-.84h.02c.79-.6,1.68-1.09,2.63-1.41l.06-.02c-.58.66-1.06,1.41-1.41,2.21l-.02.05ZM9.52,5.7v3.82h-4.06c.04-1.63.32-3.19.82-4.65l-.03.11c1.03.42,2.13.67,3.25.72h.02ZM9.52,10.47v3.82c-1.15.05-2.28.3-3.34.74l.07-.02c-.46-1.35-.75-2.9-.78-4.52v-.02h4.06ZM9.52,15.25v3.75c-1.15-.25-2.19-1.41-2.93-3.09.86-.36,1.86-.59,2.91-.65h.02ZM7.15,18.58c-.98-.33-1.9-.82-2.71-1.46h.02c.37-.27.78-.55,1.22-.79l.05-.02c.35.83.83,1.6,1.44,2.28h0ZM14.28,16.31c.48.26.9.53,1.29.84h-.02c-.79.6-1.68,1.09-2.63,1.41l-.06.02c.58-.66,1.06-1.41,1.41-2.21l.02-.05h0ZM19.03,9.52h-3.55c-.03-1.72-.32-3.43-.88-5.06l.03.11c.59-.31,1.15-.68,1.66-1.09l-.02.02c1.64,1.58,2.63,3.73,2.75,6v.02s0,0,0,0ZM3.72,3.49c.48.39,1.02.75,1.59,1.05l.05.03c-.51,1.47-.82,3.17-.85,4.94h0s-3.55.01-3.55.01c.12-2.28,1.1-4.44,2.75-6.02h0ZM.96,10.48h3.55c.03,1.72.32,3.43.88,5.06l-.03-.12c-.63.33-1.16.69-1.66,1.09h.02c-1.64-1.6-2.63-3.74-2.75-6.02v-.02s0,0,0,0Z"/>
  </g>
</svg>