<?xml version="1.0" encoding="UTF-8"?>
<svg id="Capa_2" data-name="Capa 2" xmlns="http://www.w3.org/2000/svg" viewBox="0 0 24 15">
  <defs>
    <style>
      .cls-1 {
        fill: #c1c1c1;
        fill-rule: evenodd;
        stroke-width: 0px;
      }
    </style>
  </defs>
  <g id="Capa_1-2" data-name="Capa 1">
    <path class="cls-1" d="M4,0v2h8v1H3c-.8,0-1.56.32-2.12.88-.56.56-.88,1.33-.88,2.12v6c0,.8.32,1.56.88,2.12.56.56,1.33.88,2.12.88h12c.75,0,1.48-.28,2.03-.79.55-.51.9-1.21.96-1.96l6.01.75V5l-6.01.75c-.06-.75-.4-1.45-.96-1.96-.55-.51-1.28-.79-2.03-.79h-1V1c0-.27-.11-.52-.29-.71-.19-.19-.44-.29-.71-.29H4ZM18,7.77v2.47l4,.5v-3.47l-4,.5ZM16,6c0-.27-.11-.52-.29-.71-.19-.19-.44-.29-.71-.29H3c-.27,0-.52.11-.71.29-.19.19-.29.44-.29.71v6c0,.27.11.52.29.71.19.19.44.29.71.29h12c.27,0,.52-.11.71-.29s.29-.44.29-.71v-6Z"/>
  </g>
</svg>