<?xml version="1.0" encoding="UTF-8"?>
<svg id="Capa_2" data-name="Capa 2" xmlns="http://www.w3.org/2000/svg" viewBox="0 0 60 60">
  <defs>
    <style>
      .cls-1 {
        fill: #eff2f7;
      }

      .cls-1, .cls-2 {
        stroke-width: 0px;
      }

      .cls-2 {
        fill: #33a3aa;
      }
    </style>
  </defs>
  <g id="Capa_1-2" data-name="Capa 1">
    <g>
      <circle class="cls-1" cx="30" cy="30" r="30"/>
      <path class="cls-2" d="M38,32h2v2h-2c-1.38,0-2.74-.35-4-1-2.5,1.3-5.5,1.3-8,0-1.26.65-2.63,1-4,1h-2v-2h2c1.39,0,2.78-.47,4-1.33,2.44,1.71,5.56,1.71,8,0,1.22.86,2.61,1.33,4,1.33ZM38,38h2v2h-2c-1.38,0-2.74-.35-4-1-2.5,1.3-5.5,1.3-8,0-1.26.65-2.63,1-4,1h-2v-2h2c1.39,0,2.78-.47,4-1.33,2.44,1.71,5.56,1.71,8,0,1.22.86,2.61,1.33,4,1.33ZM25,20l-4,4h3v5h2v-5h3M35,20l-4,4h3v5h2v-5h3"/>
    </g>
  </g>
</svg>