<?xml version="1.0" encoding="UTF-8"?>
<svg id="Capa_2" data-name="Capa 2" xmlns="http://www.w3.org/2000/svg" viewBox="0 0 19.75 21.2">
  <defs>
    <style>
      .cls-1 {
        fill: #9595a6;
      }

      .cls-1, .cls-2 {
        stroke-width: 0px;
      }

      .cls-2 {
        fill: #28b3bd;
      }
    </style>
  </defs>
  <g id="Capa_1-2" data-name="Capa 1">
    <g>
      <path class="cls-1" d="M18.58,14.22l-.66-1.21-.53.29.48-.38c-.57-1.04-.92-2.17-1.04-3.35l-.6.06.59-.17-.35-3.4c-.35-3.46-3.24-6.07-6.71-6.07S3.39,2.61,3.04,6.07l-.35,3.4v.1c-.14,1.18-.49,2.31-1.05,3.35l.53.29-.58-.2-.66,1.21c-.71,1.29-1.06,1.93-.88,2.63.08.33.26.63.51.86.52.49,1.26.49,2.73.49h3.1c.23.78.6,1.47,1.11,2,.64.65,1.44,1.01,2.26,1.01s1.62-.36,2.26-1.01c.51-.52.88-1.22,1.11-2h3.1c1.47,0,2.21,0,2.73-.49.25-.23.42-.53.51-.86.18-.7-.17-1.34-.88-2.63ZM11.15,19.35c-.82.84-1.96.84-2.79,0-.3-.3-.53-.7-.71-1.15h4.2c-.17.45-.41.85-.71,1.15ZM18.13,16.83c-.18.17-.94.17-1.91.17H3.29c-.97,0-1.73,0-1.91-.16-.08-.08-.14-.18-.17-.29-.06-.23.31-.9.77-1.75l.66-1.21.05-.1c.64-1.18,1.04-2.46,1.18-3.8l.36-3.51c.29-2.84,2.66-4.99,5.52-4.99s5.23,2.14,5.52,4.99l.36,3.5c.14,1.34.54,2.62,1.18,3.79l.72,1.31c.47.85.83,1.52.77,1.75-.03.11-.09.21-.17.29Z"/>
      <circle class="cls-2" cx="15.25" cy="5.1" r="4.5"/>
    </g>
  </g>
</svg>