<?xml version="1.0" encoding="UTF-8"?>
<svg id="Capa_2" data-name="Capa 2" xmlns="http://www.w3.org/2000/svg" viewBox="0 0 60 60">
  <defs>
    <style>
      .cls-1 {
        fill: #eff2f7;
      }

      .cls-1, .cls-2 {
        stroke-width: 0px;
      }

      .cls-2 {
        fill: #33a3aa;
      }
    </style>
  </defs>
  <g id="Capa_1-2" data-name="Capa 1">
    <g>
      <circle class="cls-1" cx="30" cy="30" r="30"/>
      <path class="cls-2" d="M36.22,36.64c0,.93-.37,1.83-1.03,2.49-.66.66-1.55,1.03-2.49,1.03-1.51,0-2.97-.98-3.47-2.33-.06-.17-.06-.37.02-.54.08-.17.22-.3.4-.37.17-.06.37-.06.54.02.17.08.3.22.37.4.29.79,1.24,1.42,2.15,1.42.56,0,1.1-.22,1.49-.62.4-.4.62-.93.62-1.49s-.22-1.1-.62-1.49c-.4-.4-.93-.62-1.49-.62h-13.12c-.19,0-.37-.07-.5-.21-.13-.13-.21-.31-.21-.5s.07-.37.21-.5c.13-.13.31-.21.5-.21h13.12c.93,0,1.83.37,2.49,1.03.66.66,1.03,1.55,1.03,2.49ZM32.47,23.52c0-.93-.37-1.83-1.03-2.49-.66-.66-1.55-1.03-2.49-1.03-1.51,0-2.97.98-3.47,2.33-.06.17-.06.37.02.54.08.17.22.3.4.37.17.06.37.06.54-.02.17-.08.3-.22.37-.4.29-.79,1.24-1.42,2.15-1.42.56,0,1.1.22,1.49.62.4.4.62.93.62,1.49s-.22,1.1-.62,1.49-.93.62-1.49.62h-11.25c-.19,0-.37.07-.5.21-.13.13-.21.31-.21.5s.07.37.21.5c.13.13.31.21.5.21h11.25c.93,0,1.83-.37,2.49-1.03.66-.66,1.03-1.55,1.03-2.49ZM39.27,23.75c-1.51,0-2.97.98-3.47,2.33-.03.09-.05.18-.04.27,0,.09.03.18.06.27.04.08.09.16.16.22.07.06.15.11.23.14.09.03.18.05.27.04.09,0,.18-.03.27-.06.08-.04.16-.09.22-.16.06-.07.11-.15.14-.23.29-.79,1.24-1.42,2.15-1.42.56,0,1.1.22,1.49.62.4.4.62.93.62,1.49s-.22,1.1-.62,1.49c-.4.4-.93.62-1.49.62h-20.62c-.19,0-.37.07-.5.21-.13.13-.21.31-.21.5s.07.37.21.5c.13.13.31.21.5.21h20.62c.93,0,1.83-.37,2.49-1.03.66-.66,1.03-1.55,1.03-2.49s-.37-1.83-1.03-2.49c-.66-.66-1.55-1.03-2.49-1.03Z"/>
    </g>
  </g>
</svg>