<?xml version="1.0" encoding="UTF-8"?>
<svg id="Capa_2" data-name="Capa 2" xmlns="http://www.w3.org/2000/svg" viewBox="0 0 18 12">
  <defs>
    <style>
      .cls-1 {
        fill: #84818a;
        fill-rule: evenodd;
        stroke-width: 0px;
      }
    </style>
  </defs>
  <g id="Capa_1-2" data-name="Capa 1">
    <path class="cls-1" d="M9,0C4.91,0,1.42,2.49,0,6c1.42,3.51,4.91,6,9,6s7.58-2.49,9-6C16.58,2.49,13.09,0,9,0ZM9,10c-2.26,0-4.09-1.79-4.09-4S6.74,2,9,2s4.09,1.79,4.09,4-1.83,4-4.09,4ZM9,3.6c-1.36,0-2.45,1.07-2.45,2.4s1.1,2.4,2.45,2.4,2.45-1.07,2.45-2.4-1.1-2.4-2.45-2.4Z"/>
  </g>
</svg>