<?xml version="1.0" encoding="UTF-8"?>
<svg id="Capa_2" data-name="Capa 2" xmlns="http://www.w3.org/2000/svg" viewBox="0 0 20 20">
  <defs>
    <style>
      .cls-1 {
        fill: #9595a6;
        fill-rule: evenodd;
        stroke-width: 0px;
      }
    </style>
  </defs>
  <g id="Capa_1-2" data-name="Capa 1">
    <path class="cls-1" d="M9.39,0h1.23c.2,0,.38,0,.53.01.16.01.33.04.49.11.3.13.54.35.7.63.09.16.13.32.16.48.03.15.04.33.06.53v.02s0,.02,0,.03c.04.4.07.68.11.87.04.2.07.24.07.24,0,0,0,0,0,0,.08.09.19.14.31.13,0,0,.06,0,.22-.12.17-.12.39-.29.71-.56h.01c.16-.14.3-.25.42-.34.13-.09.28-.18.45-.23.31-.09.64-.07.94.05.17.07.31.17.43.27.11.1.24.23.38.37l.87.87c.14.14.27.27.37.38.11.12.21.26.27.43.12.3.14.63.05.94-.05.17-.14.32-.23.45-.09.12-.2.26-.33.42h-.01c-.27.34-.44.56-.56.73-.11.17-.12.22-.12.22,0,0,0,0,0,0-.01.12.04.24.13.31,0,0,.04.03.24.07.2.04.48.07.9.11h.02c.2.02.38.04.53.07.16.03.32.07.48.16.28.16.51.4.63.7.07.17.1.33.11.49.01.15.01.33.01.53v1.23c0,.2,0,.38-.01.53-.01.16-.04.33-.11.49-.13.3-.35.54-.63.7-.16.09-.32.13-.48.16-.15.03-.33.04-.53.06h-.02c-.42.04-.7.07-.9.11-.2.04-.24.07-.24.07,0,0,0,0,0,0-.09.08-.14.19-.13.31,0,0,0,.06.12.22.12.17.29.39.56.71h.01c.13.17.24.31.33.43.09.13.18.28.23.45.09.31.07.64-.05.94-.07.17-.17.31-.27.43-.1.11-.23.24-.37.38l-.87.87c-.14.14-.27.27-.38.37-.12.11-.26.21-.43.27-.3.12-.63.14-.94.05-.18-.05-.32-.14-.45-.23-.12-.09-.26-.2-.42-.33h-.01c-.33-.28-.54-.46-.71-.57-.17-.11-.22-.12-.22-.12-.12-.01-.24.04-.31.13,0,0-.03.04-.07.24-.04.2-.07.48-.11.9v.02c-.02.2-.04.38-.07.53-.03.16-.07.32-.16.48-.16.28-.4.51-.7.63-.17.07-.33.1-.49.11-.15.01-.33.01-.53.01h-1.23c-.2,0-.38,0-.53-.01-.16-.01-.33-.04-.49-.11-.3-.13-.54-.35-.7-.63-.09-.16-.13-.32-.16-.48-.03-.15-.04-.33-.06-.53v-.02c-.04-.42-.07-.7-.11-.9-.04-.2-.07-.24-.07-.24,0,0,0,0,0,0-.08-.09-.19-.14-.31-.13,0,0-.06,0-.22.12-.17.12-.39.29-.71.56h-.01c-.16.14-.3.25-.42.34-.13.09-.28.18-.45.23-.31.09-.64.07-.94-.05-.17-.07-.31-.17-.43-.27-.11-.1-.24-.23-.38-.37l-.87-.87c-.14-.14-.27-.27-.37-.38-.11-.12-.21-.26-.27-.43-.12-.3-.14-.63-.05-.94.05-.18.14-.32.23-.45.09-.12.2-.26.33-.42h.01c.27-.34.44-.56.56-.73.11-.17.12-.22.12-.22,0,0,0,0,0,0,.01-.12-.04-.24-.13-.31,0,0-.04-.03-.24-.07-.2-.04-.48-.07-.9-.11h-.03c-.2-.02-.37-.04-.52-.07-.16-.03-.32-.07-.48-.16-.28-.16-.51-.4-.63-.7-.07-.17-.1-.33-.11-.49C0,11,0,10.82,0,10.61v-1.23c0-.2,0-.38.01-.53.01-.16.04-.33.11-.49.13-.3.35-.54.63-.7.16-.09.32-.13.48-.16.15-.03.33-.04.53-.06h.02s.02,0,.03,0c.4-.04.68-.07.87-.11.2-.04.24-.07.24-.07,0,0,0,0,0,0,.09-.08.14-.19.13-.31,0,0,0-.06-.12-.22-.12-.17-.29-.39-.56-.71h-.01c-.13-.17-.24-.31-.33-.43-.09-.13-.18-.28-.23-.45-.09-.31-.07-.64.05-.94.07-.17.17-.31.27-.43.1-.11.23-.24.37-.38l.87-.87c.14-.14.27-.27.38-.37.12-.11.26-.21.43-.27.3-.12.63-.14.94-.05.18.05.32.14.45.23.12.09.26.2.42.33h.01c.33.28.54.46.71.57.17.11.22.12.22.12,0,0,0,0,0,0,.12.01.24-.04.31-.13,0,0,.03-.04.07-.24.04-.2.07-.47.11-.88,0,0,0-.01,0-.02v-.02c.02-.2.04-.38.07-.53.03-.16.07-.32.16-.48.16-.28.4-.51.7-.63.17-.07.33-.1.49-.11C9,0,9.18,0,9.39,0ZM11.47,1.89v.02c.04.39.07.72.12.97.05.25.12.53.31.75.31.37.78.56,1.25.52.29-.03.54-.16.75-.31.21-.15.47-.35.77-.6l.02-.02c.17-.14.28-.23.37-.29.08-.06.11-.07.12-.07.08-.02.16-.02.24.01,0,0,.04.02.11.08.08.07.18.17.34.33l.84.84c.16.16.26.26.33.34.07.08.08.1.08.11.03.08.03.16.01.24,0,0-.01.04-.07.12-.06.09-.15.2-.29.37l-.02.02c-.25.3-.45.56-.6.77-.15.21-.29.46-.31.75-.04.48.15.95.52,1.25.22.19.5.26.75.31.25.05.58.08.97.12h.02c.22.02.36.04.47.06.1.02.13.03.13.04.07.04.13.1.16.18,0,0,.02.04.02.14,0,.11,0,.25,0,.47v1.19c0,.23,0,.36,0,.47,0,.1-.02.13-.02.14-.03.07-.09.14-.16.18,0,0-.04.02-.13.04-.1.02-.24.03-.47.05h-.02c-.39.04-.71.07-.97.12-.25.05-.53.12-.75.31-.37.31-.56.78-.52,1.25.03.29.16.54.31.75.15.21.35.47.6.77l.02.02c.14.17.23.28.29.37.06.08.07.11.07.12.02.08.02.16-.01.24,0,0-.02.04-.08.11-.07.08-.17.18-.33.34l-.84.84c-.16.16-.26.26-.34.33-.08.07-.1.08-.11.08-.08.03-.16.03-.24.01,0,0-.04-.01-.12-.07-.09-.06-.2-.15-.37-.29l-.02-.02c-.3-.25-.56-.45-.77-.6-.21-.15-.46-.29-.75-.31-.48-.04-.95.15-1.25.52-.19.22-.26.5-.31.75-.05.25-.08.58-.12.97v.02c-.02.22-.04.36-.06.47-.02.1-.03.13-.04.13-.04.07-.1.13-.18.16,0,0-.04.02-.14.02-.11,0-.25,0-.47,0h-1.19c-.23,0-.36,0-.47,0-.1,0-.13-.02-.14-.02-.07-.03-.14-.09-.18-.16,0,0-.02-.04-.04-.13-.02-.1-.03-.24-.05-.47v-.02c-.04-.39-.07-.71-.12-.97-.05-.25-.12-.53-.31-.75-.31-.37-.78-.56-1.25-.52-.29.03-.54.16-.75.31-.21.15-.47.35-.77.6l-.02.02c-.17.14-.28.23-.37.29-.08.06-.11.07-.12.07-.08.02-.16.02-.24-.01,0,0-.04-.02-.11-.08-.08-.07-.18-.17-.34-.33l-.84-.84c-.16-.16-.26-.26-.33-.34-.07-.08-.08-.1-.08-.11-.03-.08-.03-.16-.01-.24,0,0,.01-.04.07-.12.06-.09.15-.2.29-.37l.02-.02c.25-.3.46-.56.6-.77.15-.21.29-.46.31-.75.04-.48-.15-.95-.52-1.25-.22-.19-.5-.26-.75-.31-.25-.05-.58-.08-.97-.12h0s-.02,0-.02,0c-.22-.02-.36-.04-.47-.05-.1-.02-.13-.03-.13-.04-.07-.04-.13-.1-.16-.18,0,0-.01-.04-.02-.14,0-.11,0-.25,0-.47v-1.19c0-.23,0-.36,0-.47,0-.1.02-.13.02-.14.03-.07.09-.14.16-.18,0,0,.04-.02.13-.04.1-.02.24-.03.47-.05h.02c.39-.04.72-.07.97-.12.25-.05.53-.12.75-.31.37-.31.56-.78.52-1.25-.03-.29-.16-.54-.31-.75-.15-.21-.35-.47-.6-.77l-.02-.02c-.14-.17-.23-.28-.29-.37-.06-.08-.07-.11-.07-.12-.02-.08-.02-.16.01-.24,0,0,.02-.04.08-.11.07-.08.17-.18.33-.34l.84-.84c.16-.16.26-.26.34-.33.08-.07.1-.08.11-.08.08-.03.16-.03.24-.01,0,0,.04.01.12.07.09.06.2.15.37.29l.02.02c.3.25.56.45.77.6.21.15.46.29.75.31.48.04.95-.15,1.25-.52.19-.22.26-.5.31-.75.05-.25.08-.58.12-.97v-.02s0,0,0-.01c.02-.22.04-.35.05-.46.02-.1.03-.13.04-.13.04-.07.1-.13.18-.16,0,0,.04-.01.14-.02.11,0,.25,0,.47,0h1.19c.23,0,.36,0,.47,0,.1,0,.13.02.14.02.07.03.14.09.18.16,0,0,.02.04.04.13.02.1.03.24.05.47ZM10,6.77c-1.78,0-3.23,1.45-3.23,3.23s1.45,3.23,3.23,3.23,3.23-1.45,3.23-3.23-1.45-3.23-3.23-3.23ZM5.67,10c0-2.39,1.94-4.33,4.33-4.33s4.33,1.94,4.33,4.33-1.94,4.33-4.33,4.33-4.33-1.94-4.33-4.33Z"/>
  </g>
</svg>