<?xml version="1.0" encoding="UTF-8"?>
<svg id="Capa_2" data-name="Capa 2" xmlns="http://www.w3.org/2000/svg" viewBox="0 0 17.79 18">
  <defs>
    <style>
      .cls-1 {
        fill: #c1c1c1;
        stroke-width: 0px;
      }
    </style>
  </defs>
  <g id="Capa_1-2" data-name="Capa 1">
    <g>
      <path class="cls-1" d="M8,16H2V2h6c.55,0,1-.45,1-1s-.45-1-1-1H2C.9,0,0,.9,0,2v14c0,1.1.9,2,2,2h6c.55,0,1-.45,1-1s-.45-1-1-1Z"/>
      <path class="cls-1" d="M17.65,8.65l-2.79-2.79c-.07-.07-.16-.12-.26-.14-.1-.02-.2-.01-.29.03-.09.04-.17.1-.23.18-.06.08-.09.18-.09.28v1.79h-7c-.55,0-1,.45-1,1s.45,1,1,1h7v1.79c0,.45.54.67.85.35l2.79-2.79c.2-.19.2-.51.01-.7Z"/>
    </g>
  </g>
</svg>