<?xml version="1.0" encoding="UTF-8"?>
<svg id="Capa_2" data-name="Capa 2" xmlns="http://www.w3.org/2000/svg" viewBox="0 0 60 60">
  <defs>
    <style>
      .cls-1 {
        fill: #eff2f7;
      }

      .cls-1, .cls-2, .cls-3 {
        stroke-width: 0px;
      }

      .cls-2, .cls-3 {
        fill: #33a3aa;
      }

      .cls-3 {
        fill-rule: evenodd;
      }
    </style>
  </defs>
  <g id="Capa_1-2" data-name="Capa 1">
    <g>
      <circle class="cls-1" cx="30" cy="30" r="30"/>
      <path class="cls-3" d="M29.87,20c-3.27,0-6.08,1.95-7.34,4.75-.12.27-.21.46-.27.6-.07.14-.09.18-.1.19h0s0,0,0,0c-.1.14-.15.18-.18.2-.03.02-.09.05-.26.08-.05,0-.15.01-.61.01-2.83,0-5.12,2.29-5.12,5.12s2.29,5.12,5.12,5.12h11.09l.64-1.5h-11.73c-2,0-3.62-1.62-3.62-3.62s1.62-3.62,3.62-3.62h.08c.33,0,.6,0,.82-.04.27-.05.53-.13.78-.29.25-.16.43-.37.59-.59.09-.12.16-.27.23-.42.07-.15.17-.36.28-.62h0s0,0,0,0c1.02-2.28,3.31-3.87,5.97-3.87s4.95,1.59,5.97,3.87h0c.12.27.21.47.28.63.07.14.14.3.23.42.16.22.34.43.59.59.25.16.51.24.78.29.22.04.49.04.82.04h.08c2,0,3.62,1.62,3.62,3.62s-1.62,3.62-3.62,3.62h-.06l.63,1.47c2.56-.28,4.56-2.45,4.56-5.09,0-2.83-2.29-5.12-5.12-5.12-.45,0-.56,0-.61-.01-.17-.03-.23-.06-.26-.08-.03-.02-.08-.06-.18-.2,0,0,0,0,0,0h0s-.03-.05-.1-.19c-.07-.14-.15-.33-.27-.6-1.26-2.8-4.07-4.75-7.34-4.75Z"/>
      <path class="cls-2" d="M34.59,38.42v-.65l1.51-1.4c.13-.12.24-.24.32-.34.09-.1.16-.2.2-.29.05-.1.07-.2.07-.31,0-.12-.03-.23-.08-.32-.06-.09-.13-.16-.23-.21-.1-.05-.21-.07-.33-.07s-.24.03-.34.08c-.1.05-.17.13-.22.23-.05.1-.08.21-.08.35h-.85c0-.28.06-.52.19-.72.13-.2.3-.36.53-.47.23-.11.49-.17.78-.17s.57.05.79.16c.23.11.4.25.53.44.13.19.19.41.19.65,0,.16-.03.32-.1.47-.06.16-.17.33-.33.52-.16.19-.39.42-.68.68l-.62.61v.03h1.78v.73h-3.02Z"/>
      <path class="cls-2" d="M29.31,28.07h-1.09c-.02-.14-.06-.27-.12-.38-.06-.11-.14-.21-.24-.28-.1-.08-.21-.14-.33-.18-.12-.04-.26-.06-.41-.06-.26,0-.49.07-.69.2-.2.13-.35.32-.45.57-.11.25-.16.55-.16.9s.05.67.16.91c.11.25.26.43.46.56.2.13.42.19.68.19.14,0,.28-.02.4-.06.12-.04.23-.09.33-.17.1-.07.18-.16.24-.27.06-.11.11-.23.13-.36h1.09c-.03.24-.1.46-.21.68-.11.22-.26.41-.45.58-.19.17-.41.3-.67.4-.26.1-.55.15-.88.15-.45,0-.86-.1-1.22-.31-.36-.21-.64-.5-.85-.89-.21-.39-.31-.86-.31-1.41s.1-1.03.31-1.42c.21-.39.49-.69.85-.89.36-.21.76-.31,1.21-.31.3,0,.57.04.82.12.25.08.48.2.67.36.2.16.35.35.48.58.12.23.2.49.24.79ZM34.76,28.83c0,.56-.11,1.03-.32,1.42-.21.39-.49.69-.86.89-.36.2-.76.31-1.21.31s-.86-.1-1.22-.31c-.36-.21-.64-.5-.85-.89-.21-.39-.31-.86-.31-1.41s.1-1.03.31-1.42c.21-.39.49-.69.85-.89.36-.21.77-.31,1.22-.31s.85.1,1.21.31c.36.2.65.5.86.89.21.39.32.86.32,1.42ZM33.67,28.83c0-.36-.05-.66-.16-.91-.11-.25-.26-.43-.45-.56s-.42-.19-.68-.19-.49.06-.68.19c-.19.13-.34.31-.45.56-.11.25-.16.55-.16.91s.05.66.16.91c.11.25.26.43.45.56.19.13.42.19.68.19s.49-.06.68-.19c.19-.13.34-.31.45-.56.11-.25.16-.55.16-.91Z"/>
    </g>
  </g>
</svg>