<?xml version="1.0" encoding="UTF-8"?>
<svg id="Capa_2" data-name="Capa 2" xmlns="http://www.w3.org/2000/svg" viewBox="0 0 20 20">
  <defs>
    <style>
      .cls-1 {
        fill: #c1c1c1;
        stroke-width: 0px;
      }
    </style>
  </defs>
  <g id="Capa_1-2" data-name="Capa 1">
    <path class="cls-1" d="M10,0C4.49,0,0,4.49,0,10s4.49,10,10,10,10-4.49,10-10S15.51,0,10,0ZM2,10c0-.9.16-1.76.43-2.57l1.57,1.57,2,2v2l2,2,1,1v1.93c-3.94-.49-7-3.86-7-7.93ZM16.33,14.87c-.65-.53-1.64-.87-2.33-.87v-1c0-.53-.21-1.04-.59-1.41s-.88-.59-1.41-.59h-4v-3c.53,0,1.04-.21,1.41-.59.38-.38.59-.88.59-1.41v-1h1c.53,0,1.04-.21,1.41-.59.38-.38.59-.88.59-1.41v-.41c2.93,1.19,5,4.06,5,7.41,0,1.76-.59,3.48-1.67,4.87Z"/>
  </g>
</svg>