<?xml version="1.0" encoding="UTF-8"?>
<svg id="Capa_2" data-name="Capa 2" xmlns="http://www.w3.org/2000/svg" viewBox="0 0 21.5 21.5">
  <defs>
    <style>
      .cls-1 {
        fill: #c1c1c1;
        stroke-width: 0px;
      }
    </style>
  </defs>
  <g id="Capa_1-2" data-name="Capa 1">
    <g>
      <path class="cls-1" d="M20.75,20h-1.32l-.38-3.77c-.04-.42-.13-.84-.27-1.25l-1.67-5c-.09-.27-.15-.54-.19-.82l-.33-2.67h.15c.41,0,.75-.34.75-.75s-.34-.75-.75-.75H4.75c-.41,0-.75.34-.75.75s.34.75.75.75h.15l-.33,2.67c-.04.28-.1.55-.19.82l-1.67,5c-.14.41-.23.83-.27,1.25l-.38,3.77H.75c-.41,0-.75.34-.75.75s.34.75.75.75h20c.41,0,.75-.34.75-.75s-.34-.75-.75-.75ZM3.58,20l.36-3.62c.03-.31.1-.62.2-.92l1.67-5c.12-.36.2-.73.25-1.11l.36-2.85h8.68l.36,2.85c.05.37.13.75.25,1.1l1.67,5c.1.3.17.61.2.92l.36,3.62H3.58Z"/>
      <path class="cls-1" d="M10.75,3.5c.19,0,.38-.07.53-.22l.41-.41c.12-.12.25-.21.41-.27.15-.06.31-.1.48-.1h.34c.36,0,.72-.07,1.05-.21s.64-.34.89-.6l.41-.41c.29-.29.29-.77,0-1.06s-.77-.29-1.06,0l-.41.41c-.12.12-.25.21-.41.27-.15.06-.31.1-.48.1h-.34c-.36,0-.72.07-1.05.21s-.64.34-.89.6l-.41.41c-.29.29-.29.77,0,1.06.15.15.34.22.53.22Z"/>
      <path class="cls-1" d="M9.58,17.01c-.54-.23-1-.61-1.33-1.11-.33-.49-.5-1.07-.5-1.66,0-.28-.22-.5-.5-.5h0c-.28,0-.5.22-.5.5,0,.79.23,1.55.67,2.21.44.66,1.05,1.17,1.77,1.47.06.03.13.04.2.04.19,0,.38-.11.46-.3.11-.25-.01-.55-.26-.66Z"/>
      <path class="cls-1" d="M8.22,12.33c.13,0,.26-.05.36-.16.28-.3.61-.53.99-.69.37-.16.77-.24,1.18-.24h0c.41,0,.8.08,1.18.24.38.16.71.39.99.69.19.2.51.21.71.02.2-.19.21-.51.02-.71-.38-.4-.82-.7-1.32-.92-.5-.21-1.03-.32-1.57-.32h0c-.54,0-1.07.11-1.57.32-.5.21-.95.52-1.32.92-.19.2-.18.52.02.71.1.09.22.14.34.14Z"/>
      <path class="cls-1" d="M14.25,13.75h0c-.28,0-.5.22-.5.5,0,.59-.17,1.16-.5,1.66-.33.49-.79.88-1.33,1.11-.25.11-.37.4-.26.66.08.19.27.3.46.3.07,0,.13-.01.2-.04.73-.31,1.34-.82,1.77-1.48.44-.66.67-1.42.67-2.21,0-.28-.22-.5-.5-.5Z"/>
      <circle class="cls-1" cx="10.75" cy="14.25" r="1"/>
    </g>
  </g>
</svg>