<?xml version="1.0" encoding="UTF-8"?>
<svg id="Capa_2" data-name="Capa 2" xmlns="http://www.w3.org/2000/svg" viewBox="0 0 34.35 28">
  <defs>
    <style>
      .cls-1, .cls-2, .cls-3, .cls-4 {
        stroke-width: 0px;
      }

      .cls-1, .cls-3 {
        fill: #ececec;
      }

      .cls-1, .cls-4 {
        fill-rule: evenodd;
      }

      .cls-2 {
        fill: #fff;
      }

      .cls-4 {
        fill: #09050d;
      }
    </style>
  </defs>
  <g id="Capa_1-2" data-name="Capa 1">
    <g>
      <path class="cls-1" d="M21.06,10.01L15.28,0,0,26.47h11.56l9.5-16.46Z"/>
      <path class="cls-3" d="M23.72,8.06l10.63,18.42H13.09l10.63-18.42Z"/>
      <path class="cls-2" d="M13.47,22.75c1.35-2.33,4.71-2.33,6.05,0,1.35,2.33-.34,5.25-3.03,5.25s-4.37-2.92-3.03-5.25Z"/>
      <path class="cls-4" d="M14.62,23.41c-.83,1.45.21,3.26,1.88,3.26s2.71-1.81,1.88-3.26c-.83-1.45-2.92-1.45-3.76,0ZM19.53,22.75c-1.35-2.33-4.71-2.33-6.05,0-1.35,2.33.34,5.25,3.03,5.25s4.37-2.92,3.03-5.25Z"/>
    </g>
  </g>
</svg>