<?xml version="1.0" encoding="UTF-8"?>
<svg id="Capa_2" data-name="Capa 2" xmlns="http://www.w3.org/2000/svg" viewBox="0 0 60 60">
  <defs>
    <style>
      .cls-1 {
        fill: #eff2f7;
      }

      .cls-1, .cls-2 {
        stroke-width: 0px;
      }

      .cls-2 {
        fill: #33a3aa;
        fill-rule: evenodd;
      }
    </style>
  </defs>
  <g id="Capa_1-2" data-name="Capa 1">
    <g>
      <circle class="cls-1" cx="30" cy="30" r="30"/>
      <path class="cls-2" d="M29.87,20c-3.27,0-6.08,1.95-7.34,4.75-.12.27-.21.46-.27.6-.07.14-.09.18-.1.19h0s0,0,0,0c-.1.14-.15.18-.18.2-.03.02-.09.05-.26.08-.05,0-.15.01-.61.01-2.83,0-5.12,2.29-5.12,5.12s2.29,5.12,5.12,5.12h11.09l.64-1.5h-11.73c-2,0-3.62-1.62-3.62-3.62s1.62-3.62,3.62-3.62h.08c.33,0,.6,0,.82-.04.27-.05.53-.13.78-.29.25-.16.43-.37.59-.59.09-.12.16-.27.23-.42.07-.15.17-.36.28-.62h0s0,0,0,0c1.02-2.28,3.31-3.87,5.97-3.87s4.95,1.59,5.97,3.87h0c.12.27.21.47.28.63.07.14.14.3.23.42.16.22.34.43.59.59.25.16.51.24.78.29.22.04.49.04.82.04h.08c2,0,3.62,1.62,3.62,3.62s-1.62,3.62-3.62,3.62h-.06l.63,1.47c2.56-.28,4.56-2.45,4.56-5.09,0-2.83-2.29-5.12-5.12-5.12-.45,0-.56,0-.61-.01-.17-.03-.23-.06-.26-.08-.03-.02-.08-.06-.18-.2,0,0,0,0,0,0h0s-.03-.05-.1-.19c-.07-.14-.15-.33-.27-.6-1.26-2.8-4.07-4.75-7.34-4.75Z"/>
    </g>
  </g>
</svg>