<?xml version="1.0" encoding="UTF-8"?>
<svg id="Capa_2" data-name="Capa 2" xmlns="http://www.w3.org/2000/svg" viewBox="0 0 60 60">
  <defs>
    <style>
      .cls-1 {
        fill: #eff2f7;
        stroke-width: 0px;
      }

      .cls-2 {
        fill: none;
        stroke: #33a3aa;
        stroke-linecap: round;
        stroke-width: 1.5px;
      }
    </style>
  </defs>
  <g id="Capa_1-2" data-name="Capa 1">
    <g>
      <circle class="cls-1" cx="30" cy="30" r="30"/>
      <path class="cls-2" d="M30,24c1.38,0,2.74.32,3.98.93,1.24.61,2.32,1.5,3.16,2.59.84,1.1,1.42,2.37,1.69,3.72.27,1.35.22,2.75-.13,4.09l-1.93-.52M30,24c-1.38,0-2.74.32-3.98.93-1.24.61-2.32,1.5-3.16,2.59-.84,1.1-1.42,2.37-1.69,3.72-.27,1.35-.22,2.75.13,4.09l1.93-.52M30,24v2M23.64,26.64l1.41,1.41M36.36,26.64l-1.41,1.41M30.77,33.58c.49.71.14,1.79-.77,2.42-.91.63-2.04.56-2.53-.15-.52-.76-2.31-5.01-3.4-7.64-.21-.5.4-.91.79-.54,2.06,1.96,5.39,5.16,5.91,5.91Z"/>
    </g>
  </g>
</svg>