<?xml version="1.0" encoding="UTF-8"?>
<svg id="Capa_2" data-name="Capa 2" xmlns="http://www.w3.org/2000/svg" viewBox="0 0 60 60">
  <defs>
    <style>
      .cls-1 {
        fill: #eff2f7;
      }

      .cls-1, .cls-2 {
        stroke-width: 0px;
      }

      .cls-2 {
        fill: #33a3aa;
      }
    </style>
  </defs>
  <g id="Capa_1-2" data-name="Capa 1">
    <g>
      <circle class="cls-1" cx="30" cy="30" r="30"/>
      <path class="cls-2" d="M29.56,18.88c-.7,0-1.36.28-1.86.77-.49.49-.77,1.16-.77,1.86v11.84l-.34.28c-.75.61-1.29,1.44-1.55,2.37-.26.93-.22,1.92.1,2.83s.92,1.7,1.71,2.26c.79.56,1.73.86,2.7.86s1.91-.3,2.7-.86c.79-.56,1.39-1.34,1.71-2.26s.36-1.9.1-2.83c-.26-.93-.8-1.76-1.55-2.37l-.34-.28v-11.84c0-.34-.07-.69-.2-1-.13-.32-.33-.61-.57-.85-.24-.24-.53-.44-.85-.57-.32-.13-.66-.2-1-.2ZM25.06,21.5c0-1.19.47-2.34,1.32-3.18.84-.84,1.99-1.32,3.18-1.32s2.34.47,3.18,1.32c.84.84,1.32,1.99,1.32,3.18v10.97c.96.9,1.62,2.07,1.91,3.35.29,1.28.18,2.62-.31,3.84-.48,1.22-1.33,2.27-2.41,3.01s-2.37,1.13-3.69,1.13-2.6-.39-3.69-1.13c-1.09-.74-1.93-1.79-2.41-3.01-.48-1.22-.59-2.56-.31-3.84.29-1.28.95-2.45,1.91-3.35v-10.97ZM32.56,37.25c0,.55-.15,1.09-.44,1.57-.29.47-.7.85-1.19,1.11-.49.25-1.04.36-1.6.32-.55-.04-1.08-.24-1.53-.56-.45-.32-.8-.77-1.01-1.28-.21-.51-.28-1.07-.2-1.62.09-.55.32-1.06.68-1.48.36-.42.82-.74,1.35-.91v-8.21c0-.25.1-.49.27-.66.18-.18.41-.27.66-.27s.49.1.66.27c.18.18.27.41.27.66v8.21c.6.2,1.12.58,1.49,1.09.37.51.57,1.13.57,1.76Z"/>
    </g>
  </g>
</svg>