<?xml version="1.0" encoding="UTF-8"?>
<svg id="Capa_2" data-name="Capa 2" xmlns="http://www.w3.org/2000/svg" viewBox="0 0 60 60">
  <defs>
    <style>
      .cls-1 {
        fill: none;
        stroke: #33a3aa;
        stroke-width: 1.5px;
      }

      .cls-2 {
        fill: #eff2f7;
      }

      .cls-2, .cls-3 {
        stroke-width: 0px;
      }

      .cls-3 {
        fill: #33a3aa;
      }
    </style>
  </defs>
  <g id="Capa_1-2" data-name="Capa 1">
    <g>
      <circle class="cls-2" cx="30" cy="30" r="30"/>
      <path class="cls-3" d="M29.05,32.4h-1.08c-1.55,0-2.32,0-2.61-.5s.09-1.18.85-2.52l2.4-4.22c.38-.67.57-1,.76-.95.19.05.19.43.19,1.2v2.84c0,.24,0,.36.07.43.07.07.19.07.43.07h1.08c1.55,0,2.32,0,2.61.5.29.5-.09,1.18-.85,2.52l-2.4,4.22c-.38.67-.57,1-.76.95-.19-.05-.19-.43-.19-1.2v-2.84c0-.24,0-.36-.07-.43-.07-.07-.19-.07-.43-.07Z"/>
      <circle class="cls-1" cx="29.5" cy="30.5" r="10.5"/>
    </g>
  </g>
</svg>